<svg xmlns:dc="http://purl.org/dc/elements/1.1/" xmlns:cc="http://creativecommons.org/ns#" xmlns:rdf="http://www.w3.org/1999/02/22-rdf-syntax-ns#" xmlns:svg="http://www.w3.org/2000/svg" xmlns="http://www.w3.org/2000/svg" xmlns:sodipodi="http://sodipodi.sourceforge.net/DTD/sodipodi-0.dtd" xmlns:inkscape="http://www.inkscape.org/namespaces/inkscape" viewBox="0 0 142.87552 115.45969" version="1.1" x="0px" y="0px"><g transform="translate(-40.443195,-128.18539)"><path d="m 48.577453,128.18539 c -4.487637,0 -8.134258,3.64251 -8.134258,8.12584 v 76.09371 c 0,4.49192 3.646621,8.1482 8.134258,8.1482 H 175.2012 c 4.47763,0 8.11751,-3.65769 8.11751,-8.1482 v -76.0909 c 10e-4,-4.48333 -3.63988,-8.12865 -8.11751,-8.12865 z m 92.591017,16.07873 c 8.31367,-7.2e-4 15.05384,6.73821 15.05465,15.05188 7.1e-4,8.31475 -6.7399,15.05536 -15.05465,15.05464 -8.31366,-8.2e-4 -15.05258,-6.74098 -15.05187,-15.05464 8.1e-4,-8.31258 6.73929,-15.05106 15.05187,-15.05188 z M 58.991533,154.5387 h 2.575613 v 7.4569 h -7.590108 v -2.44243 c 0,-2.76314 2.249907,-5.01447 5.014495,-5.01447 z m 5.486092,0 h 6.510196 v 23.92837 h -6.510196 z m 9.417877,0 h 2.578405 c 2.763163,0 5.011709,2.24993 5.011709,5.01447 v 2.44243 h -7.590114 z m -19.918464,10.3674 h 7.590108 v 3.19637 h -7.590108 z m 19.918464,0 h 7.590114 v 3.19637 h -7.590114 z m -19.918464,6.10687 h 7.590108 v 7.4541 h -2.575613 c -2.763158,0 -5.014495,-2.24987 -5.014495,-5.01447 z m 19.918464,0 h 7.590114 v 2.43963 c 0,2.7646 -2.248546,5.01447 -5.011709,5.01447 h -2.578405 z m 57.601158,5.89147 c 6.02134,3.31172 13.32228,3.31172 19.34362,0 4.22749,0.26352 8.15508,2.29572 10.80197,5.59491 2.7096,3.36188 4.17735,7.53849 4.17735,11.84001 0,3.30043 -2.14489,6.22221 -5.29355,7.19944 -12.60718,3.91385 -26.10519,3.91385 -38.71237,0 -3.14866,-0.97723 -5.29354,-3.89901 -5.29354,-7.19944 0,-4.30276 1.46775,-8.47813 4.17735,-11.84001 2.64688,-3.29919 6.57168,-5.3315 10.79917,-5.59491 z" style="" stroke-width="1.42872727"/></g><text x="0" y="107.367752" fill="#000000" font-size="5px" font-weight="bold" font-family="'Helvetica Neue', Helvetica, Arial-Unicode, Arial, Sans-serif">Created by Florian Huber</text><text x="0" y="112.367752" fill="#000000" font-size="5px" font-weight="bold" font-family="'Helvetica Neue', Helvetica, Arial-Unicode, Arial, Sans-serif">from the Noun Project</text></svg>